<svg width="746" height="138" viewBox="0 0 746 138" fill="none" xmlns="http://www.w3.org/2000/svg">
<path d="M744.36 36.8133C738.802 40.5341 733.245 44.1881 727.376 47.3296C721.611 50.4265 715.659 53.1447 709.583 55.4618C703.527 57.779 697.327 59.6506 691.064 61.1879C685.423 62.5693 679.72 63.8169 674.204 65.6885C674.018 65.7553 673.831 65.8222 673.624 65.889C685.548 57.066 696.601 46.8617 706.099 35.1868C707.779 33.137 709.334 31.0204 710.848 28.8147C713.896 25.5395 716.385 21.5513 718.459 17.5631C721.134 12.4164 723.042 6.82406 724.182 1.07575C724.369 0.117702 723.29 -0.23879 722.668 0.162255C706.244 10.8568 692.682 26.4753 683.598 44.6114C681.048 49.7136 678.87 55.0385 677.087 60.4972C672.877 63.8392 668.543 66.9807 664.105 69.944C654.503 76.3384 644.425 81.8416 633.994 86.4982C634.45 86.0972 634.906 85.7184 635.362 85.3174C637.644 83.379 639.863 81.3738 642.061 79.3017C646.436 75.1799 650.646 70.8575 654.586 66.2233C662.176 57.3111 668.688 47.2627 673.064 36.1003C675.49 29.9287 677.232 23.4451 678.061 16.8279C678.207 15.7362 676.921 15.3129 676.319 16.0704C662.404 33.449 649.692 51.8525 638.307 71.2363C635.134 76.6504 632.065 82.1313 629.1 87.6791C628.892 88.0578 628.934 88.3698 629.1 88.6372C622.298 91.489 615.351 93.9844 608.321 96.1233C596.065 99.8441 583.58 102.429 570.972 104.033C572.983 103.387 574.933 102.518 576.758 101.582C580.905 99.4876 584.762 96.7472 588.35 93.6948C595.816 87.3449 602.099 79.6137 608.901 72.484C612.821 68.3844 616.947 64.5299 621.468 61.1879C622.277 60.6086 621.634 59.2495 620.742 59.3832C602.058 62.1682 584.804 73.2638 573.191 89.1496C569.894 93.6502 567.094 98.5742 564.813 103.743C564.771 103.855 564.751 103.944 564.751 104.055C564.481 104.122 564.232 104.189 563.963 104.278C563.734 104.345 563.61 104.59 563.631 104.813C557.762 105.37 551.872 105.748 545.983 105.904C533.52 106.216 521.056 105.592 508.676 104.256C514.026 103.164 519.148 100.713 523.773 97.6829C528.999 94.2518 533.644 89.8626 537.48 84.7381C545.713 73.7317 550.027 60.163 557.492 48.6218C559.442 45.614 561.578 42.7176 564.025 40.1553C566.244 37.8159 568.712 35.8775 571.262 33.9837C571.47 33.9392 571.677 33.8945 571.884 33.85C572.237 33.7831 572.341 33.4713 572.258 33.2039C572.569 32.7806 572.092 32.0676 571.573 32.2904C571.117 32.4909 570.661 32.736 570.225 32.9811C564.979 33.7609 559.981 36.5236 555.709 39.7765C550.711 43.5865 546.543 48.5772 543.017 53.9245C535.344 65.5771 530.202 79.0344 521.409 89.8626C517.012 95.2767 511.766 99.7327 505.544 102.384C504.653 102.54 503.761 102.607 502.869 102.741C502.351 102.807 501.812 102.874 501.272 102.941C501.003 102.963 500.712 102.986 500.443 103.008C500.256 103.008 500.111 103.075 499.945 103.142C491.38 101.983 482.837 100.513 474.376 98.6633C466.288 96.9254 458.262 94.8756 450.299 92.6031C448.453 91.8678 446.608 91.1548 444.741 90.5087C443.663 90.1299 442.543 89.8403 441.444 89.5061C444.327 89.5952 447.23 89.5506 450.112 89.4392C455.898 89.1941 461.684 88.548 467.387 87.4117C473.028 86.2977 478.606 84.7826 484.06 82.8665C488.975 81.1509 493.89 79.2126 498.473 76.5835C503.18 73.8876 507.494 70.4119 510.708 65.7999C510.915 65.5994 511.144 65.3988 511.351 65.1983C511.994 64.5299 511.413 63.4827 510.687 63.661C510.355 63.5273 509.962 63.5719 509.692 63.9952C509.568 64.1957 509.402 64.3962 509.277 64.5968C504.901 67.7606 500.256 70.3451 495.196 72.0384C489.576 73.9099 483.728 74.8011 477.86 75.2022C464.836 76.0711 451.709 74.6451 438.748 76.6058C435.389 77.1182 432.091 77.8535 428.835 78.8784C425.911 79.8142 422.759 80.9728 420.25 82.9334C415.107 81.0619 410.026 78.9675 404.842 77.2519C402.022 76.3162 399.243 75.2467 396.464 74.155C396.132 74.0213 395.945 74.5338 396.257 74.6897C401.897 77.2074 407.496 79.7251 413.241 81.9308C418.985 84.1588 424.771 86.2531 430.598 88.2361C431.22 88.4589 431.863 88.6371 432.485 88.8599C433.253 91.7341 434.663 94.4077 436.114 96.97C437.649 99.7104 439.391 102.317 441.32 104.768C445.115 109.625 449.635 113.948 454.613 117.379C459.776 120.921 465.396 123.595 471.327 125.266C478.274 127.204 485.429 127.94 492.563 128.652C496.606 129.054 500.65 129.455 504.673 130.078C508.779 130.702 512.761 131.683 516.763 132.841C518.07 133.22 518.962 131.192 517.593 130.68C517.531 130.658 517.448 130.635 517.386 130.613C517.427 130.257 517.344 129.9 516.992 129.677C516.39 129.299 515.747 128.942 515.146 128.586C514.939 128.385 514.752 128.185 514.545 128.006C513.3 126.981 512.035 125.979 510.77 124.998C508.302 123.127 505.793 121.322 503.222 119.629C498.182 116.331 492.998 113.301 487.731 110.472C478.959 105.771 469.979 101.426 460.958 97.3042C462.514 97.7052 464.048 98.1062 465.604 98.485C482.318 102.54 499.302 105.436 516.369 106.862C522.819 110.472 529.559 113.591 536.174 116.822C542.852 120.097 549.571 123.327 556.476 126.068C569.354 131.148 583.124 134.312 596.853 132.084C603.986 130.925 611.162 128.363 616.823 123.483C617.404 122.993 616.823 121.812 616.139 122.236C615.641 122.548 615.143 122.837 614.646 123.127C612.178 123.795 609.71 124.219 607.138 124.308C603.945 124.419 600.731 124.152 597.558 123.773C591.212 122.993 584.97 121.456 578.831 119.607C566.596 115.93 554.693 111.051 542.229 108.288C541.483 108.132 540.716 107.999 539.969 107.865C559.317 107.865 578.624 105.726 597.495 101.092C600.15 100.713 602.804 100.401 605.5 100.245C609.109 100.045 612.717 100.134 616.325 100.423C623.604 101.003 630.821 102.25 637.996 103.61C651.123 106.105 664.375 108.823 677.771 107.664C684.988 107.041 692.142 105.214 698.633 101.738C699.525 101.248 699.442 100.045 698.633 99.5767C677.958 87.4785 653.632 90.2191 631.215 93.2269C627.005 93.7839 622.795 94.3631 618.586 94.8533C632.127 90.1076 645.296 84.0474 657.697 76.5835C657.842 76.6949 658.05 76.7172 658.216 76.5389C658.278 76.4721 658.361 76.4276 658.423 76.3607C670.741 83.7801 685.693 84.4708 699.11 80.4158C712.714 76.3162 724.867 67.6714 735.194 57.4894C740.627 52.1421 746.081 45.8814 745.998 37.4594C745.998 36.5905 744.982 36.4345 744.443 36.791L744.36 36.8133ZM716.8 16.6719C714.518 21.1948 711.553 25.0716 708.525 28.9929C702.096 36.635 695.585 44.1435 688.306 50.8944C686.896 52.209 685.444 53.4789 683.992 54.7489C686.087 52.5654 688.078 50.226 690.069 47.998C693.096 44.5891 696.062 41.1134 698.944 37.5708C704.689 30.4634 710.184 23.1109 715.306 15.4688C717.111 12.7729 718.873 10.0547 720.615 7.29196C719.599 10.5226 718.334 13.6641 716.82 16.6719H716.8ZM710.827 11.6812C713.876 8.9407 717.069 6.44533 720.387 4.1059C711.325 18.7217 701.246 32.6914 690.214 45.6363C688.555 47.5969 686.875 49.5353 685.175 51.4514C683.661 53.1447 682.085 54.7934 680.633 56.5759C687.041 39.2195 697.472 23.6679 710.827 11.6812ZM673.396 25.183C674.08 23.8239 674.847 22.4425 675.283 20.972C675.324 20.8383 675.324 20.727 675.303 20.5933C675.366 20.5042 675.428 20.4373 675.49 20.3482C671.342 42.7844 657.759 61.6112 642.164 76.6726C639.821 78.9452 637.416 81.1287 635.01 83.3122C634.844 83.4681 634.678 83.6018 634.512 83.7355C639.759 76.3384 645.192 69.0973 650.46 61.7003C656.391 53.3898 662.114 44.901 667.361 36.1003C668.771 33.7386 670.14 31.3547 671.425 28.9038C672.089 27.6561 672.732 26.4084 673.354 25.1607L673.396 25.183ZM666.386 32.2236C667.755 30.3743 669.144 28.5473 670.534 26.7203C670.534 26.7649 670.492 26.8094 670.471 26.8317C669.269 29.1489 668.045 31.4215 666.78 33.6941C664.292 38.1501 661.616 42.4725 658.838 46.728C653.259 55.2614 647.287 63.505 641.522 71.8824C639.137 75.3581 636.793 78.8561 634.471 82.3541C644.01 64.8641 654.669 48.1094 666.386 32.2013V32.2236ZM558.177 44.6114C554.382 49.8695 551.375 55.7292 548.513 61.6112C545.402 68.0057 542.416 74.5114 538.559 80.438C534.971 85.9858 530.575 90.7983 525.432 94.6751C524.499 95.3658 523.565 96.0119 522.591 96.6358C526.593 93.0709 529.89 88.6594 532.732 84.0028C536.257 78.1877 539.077 71.9492 542.25 65.9113C545.319 60.0293 548.886 54.5038 553.096 49.4908C555.211 46.9731 557.472 44.6782 559.815 42.4947C559.255 43.2077 558.716 43.9207 558.197 44.6559L558.177 44.6114ZM531.259 78.0541C538.082 65.9782 543.785 52.6768 553.884 43.2523C556.435 40.8683 559.151 38.7517 562.2 37.1475C562.822 36.8133 563.465 36.5237 564.087 36.2563C560.499 39.0636 557.181 42.3388 554.133 45.7254C549.965 50.3597 546.315 55.5064 543.183 61.0096C536.796 72.2389 532.42 85.2505 523.254 94.3631C520.932 96.6803 518.36 98.7301 515.54 100.29C513.922 101.181 512.222 101.849 510.48 102.406C519.397 96.814 525.971 87.3894 531.259 78.0763V78.0541ZM421.847 83.6018C421.847 83.6018 421.743 83.5573 421.702 83.5573C424.004 82.6883 426.243 81.6412 428.587 80.8836C431.573 79.9033 434.621 79.2126 437.691 78.7224C443.995 77.7198 450.361 77.5639 456.707 77.6084C466.06 77.6753 475.537 78.1432 484.827 76.8509C480.763 78.1877 476.636 79.3463 472.468 80.3266C461.726 82.822 450.797 84.0697 439.827 84.4039C436.674 84.493 433.522 84.4262 430.391 84.2925C427.778 84.1811 425.123 83.8023 422.49 83.8469C422.262 83.78 422.054 83.691 421.826 83.6241L421.847 83.6018ZM426.575 85.2283C427.571 85.3174 428.566 85.362 429.541 85.4288C432.361 85.6293 435.202 85.7407 438.043 85.7853C443.539 85.8744 449.013 85.7184 454.488 85.1392C465.603 83.9806 476.615 81.5966 487.295 78.0541C490.24 77.0737 493.143 75.9819 496.026 74.8011C497.726 74.1104 499.51 73.4197 501.231 72.6399C496.233 76.227 490.427 78.7224 484.848 80.7945C474.334 84.6935 463.281 86.9661 452.186 87.835C446.4 88.2807 440.635 88.147 434.849 87.9687C432.091 87.0775 429.333 86.1641 426.596 85.2283H426.575ZM510.667 128.742C506.063 127.717 501.335 127.182 496.731 126.714C489.722 125.979 482.671 125.466 475.744 123.996C463.737 121.434 452.767 115.217 444.264 105.704C441.983 103.164 439.909 100.423 438.043 97.5047C436.405 94.9424 435.119 92.202 433.647 89.5284C435.555 91.4668 437.732 93.0932 439.909 94.6528C442.274 96.3461 444.679 97.928 447.126 99.443C452.269 102.607 457.661 105.303 463.115 107.82C474.251 112.989 485.719 117.29 496.98 122.169C500.153 123.55 503.305 124.976 506.415 126.514C507.846 127.227 509.256 127.984 510.667 128.742ZM468.693 103.543C479.477 108.667 490.219 113.992 500.401 120.387C501.998 121.389 503.574 122.414 505.15 123.461C503.491 122.704 501.853 121.968 500.215 121.233C494.574 118.738 488.871 116.465 483.148 114.215C472.094 109.87 461.02 105.481 450.569 99.6659C447.624 98.0171 444.7 96.3238 441.9 94.43C440.138 93.2491 438.437 91.9569 436.716 90.7092C437.4 90.8652 438.085 90.9988 438.748 91.1548C440.386 91.5558 442.004 92.046 443.622 92.5807C446.546 93.5611 449.407 94.6973 452.248 95.9005C457.806 98.2845 463.26 100.936 468.735 103.52L468.693 103.543ZM579.308 130.19C565.062 128.43 551.644 122.347 538.642 116.153C533.706 113.814 528.771 111.385 523.773 109.09C525.681 109.447 527.609 109.781 529.496 110.227C532.649 110.962 535.801 111.809 538.891 112.789C544.905 114.683 550.815 116.866 556.767 118.961C568.525 123.127 580.553 126.981 592.975 127.784C597.205 128.051 601.519 128.006 605.77 127.382C603.385 128.296 600.959 129.031 598.47 129.566C592.166 130.858 585.696 130.992 579.329 130.19H579.308ZM540.01 109.87C546.501 111.096 552.889 112.967 559.193 114.995C571.47 118.961 583.746 123.55 596.541 125.221C599.839 125.645 603.178 125.912 606.516 125.756C602.597 126.313 598.636 126.58 594.654 126.402C588.433 126.113 582.253 124.998 576.219 123.461C564.108 120.386 552.474 115.463 540.591 111.563C537.356 110.494 534.1 109.469 530.824 108.578C533.914 108.845 536.962 109.291 540.01 109.87ZM606.039 65.5771C608.051 64.7527 610.125 64.0398 612.198 63.4159C612.012 63.505 611.825 63.6164 611.639 63.7056C609.814 64.7082 608.051 65.8222 606.33 67.0253C602.742 69.543 599.466 72.484 596.313 75.6032C589.926 81.9531 584.099 88.9268 577.546 95.0761C575.679 96.814 573.771 98.485 571.76 100C570.433 101.025 569.043 101.961 567.654 102.897C575.451 85.7853 589.491 72.3057 606.039 65.5325V65.5771ZM576.696 97.6383C580.055 94.7642 583.269 91.6449 586.359 88.4366C592.477 82.0867 598.553 75.7369 605.583 70.501C607.532 69.0528 609.544 67.716 611.659 66.5574C612.053 66.3346 612.468 66.1341 612.883 65.9336C601.29 76.8955 591.958 90.7315 578.189 98.8415C576.032 100.111 573.813 101.203 571.49 102.072C571.283 102.161 571.055 102.206 570.847 102.295C572.9 100.847 574.85 99.198 576.696 97.6161V97.6383ZM680.467 94.9425C684.905 95.9673 689.198 97.5047 693.304 99.5099C682.686 97.1704 671.84 95.7445 661.036 95.0093C653.114 94.4746 645.171 94.3855 637.25 94.6974C651.662 92.8481 666.117 91.645 680.467 94.9425ZM623.459 96.9031C629.307 96.3238 635.197 95.9673 641.065 95.8336C652.907 95.5886 664.748 96.3239 676.485 97.9726C682.416 98.8193 688.264 100 694.133 101.315C683.246 106.016 671.177 106.239 659.584 104.946C645.648 103.387 632.024 99.5322 618.047 98.3959C616.491 98.2622 614.894 98.1731 613.298 98.1063C616.678 97.6607 620.058 97.215 623.459 96.8808V96.9031ZM666.946 70.657C674.308 67.0476 682.645 65.3988 690.4 63.6164C702.926 60.7423 715.078 56.3531 726.588 50.3151C731.814 47.5746 736.977 44.5445 741.871 41.0911C735.878 49.9586 727.749 56.8878 718.562 61.6112C707.426 67.3372 695.129 70.4342 682.893 71.9047C679.389 72.328 675.843 72.5954 672.317 72.729C669.435 72.8404 666.531 72.7736 663.649 72.7959C664.748 72.0829 665.868 71.3922 666.946 70.6347V70.657ZM734.634 55.3727C729.719 60.2744 724.473 64.7973 718.811 68.674C707.468 76.4498 694.175 81.3069 680.591 80.5717C673.561 80.1929 666.656 78.3659 660.414 74.8902C661.119 74.4446 661.803 73.9768 662.508 73.5312C668.481 74.3333 674.723 74.0881 680.695 73.5534C687.207 72.9741 693.677 71.8602 700.023 70.1891C711.636 67.1367 722.979 62.1905 732.519 54.281C736.687 50.8276 740.378 46.884 743.489 42.3834C742.1 47.5078 738.076 51.9193 734.613 55.3727H734.634Z" fill="#B8D5DB"/>
<path d="M701.868 51.4735C701.598 50.716 700.997 50.0922 700.313 49.7357C699.753 49.4683 699.069 49.4015 698.467 49.5575C697.762 49.758 697.161 50.1145 696.684 50.716C696.207 51.3176 695.999 52.1197 696.062 52.8995C696.124 53.7016 696.559 54.4145 697.119 54.9493C698.052 55.8405 699.525 55.9296 700.499 55.1052C700.956 54.8824 701.37 54.526 701.64 54.1027C701.868 53.7239 702.034 53.3006 702.055 52.8327C702.075 52.3425 702.013 51.9192 701.868 51.4735Z" fill="#B8D5DB"/>
<path d="M705.456 45.4358C705.435 45.3244 705.394 45.1907 705.373 45.0793C705.352 44.8565 705.269 44.6783 705.145 44.5001C705.083 44.4333 705 44.3441 704.937 44.2773C704.772 44.1436 704.585 44.0545 704.398 44.0322C704.253 44.0099 704.087 44.0322 703.963 44.0768C703.818 44.0991 703.693 44.1659 703.569 44.2773C703.444 44.3664 703.361 44.5001 703.299 44.6338C703.216 44.7675 703.154 44.9234 703.154 45.0793C703.133 45.3021 703.154 45.5027 703.237 45.7032C703.278 45.8146 703.341 45.926 703.382 46.0597C703.424 46.1488 703.486 46.2379 703.527 46.327C703.61 46.4607 703.714 46.5498 703.859 46.6167C703.942 46.6835 704.025 46.7281 704.129 46.7281C704.17 46.7504 704.212 46.7727 704.253 46.795C704.357 46.8395 704.46 46.8618 704.564 46.8395C704.668 46.8395 704.772 46.8395 704.854 46.7727C704.917 46.7281 704.958 46.7058 705.02 46.6612C705.124 46.5721 705.207 46.4607 705.248 46.327V46.2825C705.248 46.2825 705.29 46.2157 705.311 46.1711C705.352 46.1266 705.394 46.082 705.414 46.0151C705.497 45.8146 705.518 45.6141 705.477 45.3913L705.456 45.4358Z" fill="#B8D5DB"/>
<path d="M708.278 49.9583C708.216 49.8246 708.133 49.7132 708.029 49.6241C707.905 49.5127 707.759 49.4681 707.614 49.4458H707.573H707.469C707.324 49.4236 707.179 49.4459 707.054 49.5128L706.868 49.6241C706.764 49.7132 706.681 49.8469 706.619 49.9806C706.577 50.092 706.557 50.2034 706.557 50.3148C706.557 50.4262 706.557 50.5376 706.619 50.649C706.66 50.7604 706.723 50.8495 706.805 50.9163C706.868 51.0055 706.951 51.0723 707.054 51.1169C707.199 51.1837 707.324 51.206 707.49 51.1838C707.531 51.1838 707.552 51.1838 707.594 51.1838H707.635C707.78 51.1838 707.925 51.0946 708.05 51.0055C708.153 50.9164 708.236 50.805 708.299 50.649C708.34 50.5376 708.361 50.4262 708.361 50.3148C708.361 50.2034 708.361 50.092 708.299 49.9806L708.278 49.9583Z" fill="#B8D5DB"/>
<path d="M613.465 88.0804C613.195 87.5012 612.801 87.0778 612.283 86.7658C611.951 86.5653 611.578 86.5208 611.204 86.5208C610.582 86.2312 609.877 86.142 609.234 86.3203C608.778 86.454 608.343 86.6322 607.99 86.9664C607.617 87.3006 607.347 87.7016 607.14 88.1695C606.787 89.0384 606.829 90.0188 607.14 90.8877C607.451 91.7566 608.114 92.4696 608.902 92.8261C609.753 93.2048 610.686 93.1603 611.536 92.8261C612.386 92.4919 613.071 91.7789 613.465 90.91C613.838 90.0634 613.9 88.9048 613.485 88.0581L613.465 88.0804Z" fill="#B8D5DB"/>
<path d="M615.307 82.1319C615.307 82.1319 615.266 82.065 615.245 82.0205C615.224 81.9982 615.183 81.9536 615.162 81.9313C615.224 82.0205 615.266 82.1319 615.328 82.221C615.245 82.065 615.162 81.8867 615.058 81.7531C614.976 81.6639 614.893 81.5748 614.789 81.4857C614.685 81.4189 614.581 81.352 614.478 81.2852C614.353 81.2406 614.229 81.2184 614.104 81.1738C613.98 81.1738 613.856 81.1738 613.731 81.1738L613.379 81.2852C613.275 81.352 613.171 81.4189 613.068 81.4857C612.985 81.5748 612.902 81.664 612.819 81.7754C612.694 81.9313 612.611 82.1096 612.591 82.3101C612.549 82.4438 612.528 82.5775 612.549 82.7112C612.549 82.8449 612.549 82.9785 612.611 83.1122C612.611 83.2459 612.674 83.3573 612.757 83.4687C612.798 83.6024 612.881 83.6915 612.985 83.7806C613.068 83.892 613.151 83.9589 613.275 84.0257C613.379 84.1148 613.503 84.1594 613.628 84.1817C613.752 84.2262 613.876 84.2485 614.001 84.2262C614.187 84.2262 614.374 84.2262 614.54 84.1148C614.581 84.1148 614.602 84.0925 614.623 84.0702C614.644 84.0702 614.685 84.0257 614.706 84.0257C614.664 84.0257 614.602 84.048 614.561 84.0702C614.685 84.048 614.789 84.0034 614.893 83.9589C615.079 83.8697 615.224 83.7583 615.328 83.5801C615.432 83.4464 615.494 83.3127 615.515 83.1567C615.556 83.0008 615.577 82.8448 615.556 82.6889C615.535 82.4883 615.452 82.2878 615.328 82.1319H615.307Z" fill="#B8D5DB"/>
<path d="M620.244 85.3621C620.223 85.1838 620.161 85.0279 620.057 84.8719C619.995 84.8051 619.933 84.7382 619.871 84.6936C619.725 84.5822 619.58 84.5154 619.394 84.4931C619.269 84.4708 619.124 84.4931 619.02 84.5377C618.896 84.5599 618.792 84.6268 618.689 84.7159C618.585 84.8051 618.502 84.8941 618.46 85.0278C618.377 85.1392 618.336 85.2729 618.336 85.4066C618.336 85.4957 618.336 85.5849 618.336 85.6963C618.357 85.8745 618.419 86.0305 618.523 86.1864C618.585 86.2533 618.647 86.3201 618.709 86.3647C618.854 86.4761 619 86.5429 619.186 86.5652C619.311 86.5874 619.435 86.5652 619.559 86.5206C619.684 86.4984 619.788 86.4315 619.891 86.3424C619.995 86.2533 620.078 86.1641 620.119 86.0305C620.202 85.9191 620.244 85.7853 620.244 85.6517C620.244 85.5625 620.244 85.4735 620.244 85.3621Z" fill="#B8D5DB"/>
<path d="M594.801 110.449C594.469 108.912 593.391 107.709 591.96 107.375C591.359 107.241 590.654 107.33 590.135 107.642C589.928 107.753 589.783 107.932 589.617 108.065C589.43 108.199 589.264 108.31 589.119 108.489C588.932 108.645 588.746 108.801 588.58 109.001C588.082 109.58 587.833 110.36 587.812 111.162C587.812 111.251 587.812 111.341 587.812 111.407C587.812 111.697 587.854 111.964 587.916 112.232C587.916 112.276 587.937 112.321 587.958 112.365C588.02 112.544 588.041 112.744 588.124 112.9C588.165 112.967 588.206 113.012 588.248 113.078C588.518 113.613 588.912 114.081 589.368 114.393C590.052 114.861 590.778 115.084 591.587 115.017C592.23 114.972 592.852 114.66 593.37 114.259C594.449 113.435 595.112 111.853 594.822 110.427L594.801 110.449Z" fill="#B8D5DB"/>
<path d="M598.867 114.839C598.867 114.772 598.846 114.705 598.804 114.638C598.804 114.504 598.742 114.371 598.659 114.259C598.618 114.126 598.535 114.036 598.431 113.947C598.348 113.836 598.244 113.747 598.12 113.702C598.016 113.613 597.892 113.569 597.768 113.546C597.581 113.479 597.374 113.457 597.187 113.502C597.062 113.546 596.938 113.569 596.814 113.613C596.71 113.68 596.606 113.747 596.482 113.814C596.399 113.903 596.295 114.014 596.212 114.103C596.15 114.215 596.088 114.348 596.026 114.46C595.984 114.593 595.963 114.727 595.922 114.883C595.922 115.017 595.922 115.173 595.922 115.306C595.963 115.44 595.984 115.574 596.026 115.707C596.088 115.819 596.15 115.93 596.212 116.064C596.295 116.153 596.399 116.265 596.482 116.354C596.585 116.42 596.71 116.487 596.814 116.554C597 116.643 597.187 116.688 597.394 116.666C597.519 116.666 597.664 116.666 597.768 116.599C597.892 116.599 598.016 116.532 598.12 116.443C598.244 116.398 598.327 116.309 598.41 116.198C598.514 116.109 598.597 115.997 598.639 115.863C598.742 115.685 598.825 115.485 598.825 115.262C598.825 115.128 598.825 114.972 598.825 114.839H598.867Z" fill="#B8D5DB"/>
<path d="M602.017 110.939C602.017 110.939 601.975 110.783 601.934 110.739C601.913 110.672 601.872 110.605 601.809 110.561C601.768 110.494 601.685 110.471 601.623 110.427C601.602 110.405 601.581 110.36 601.54 110.338C601.457 110.293 601.395 110.249 601.312 110.204C601.187 110.137 601.063 110.115 600.918 110.137C600.835 110.137 600.752 110.137 600.669 110.182C600.544 110.204 600.42 110.271 600.337 110.36C600.296 110.382 600.254 110.427 600.213 110.449C600.088 110.561 600.005 110.672 599.943 110.828C599.902 110.939 599.881 111.073 599.881 111.207C599.881 111.34 599.881 111.452 599.943 111.563C600.005 111.719 600.088 111.853 600.213 111.942C600.254 111.964 600.296 112.009 600.337 112.031L600.565 112.165C600.69 112.232 600.814 112.254 600.959 112.232C601.042 112.232 601.125 112.232 601.208 112.187C601.332 112.165 601.457 112.098 601.54 112.009L601.581 111.964C601.623 111.942 601.664 111.897 601.726 111.875C601.768 111.831 601.83 111.764 601.872 111.719C601.913 111.652 601.934 111.585 601.975 111.519C602.017 111.407 602.038 111.296 602.038 111.162C602.038 111.073 602.038 111.006 602.017 110.939Z" fill="#B8D5DB"/>
<path d="M541.526 94.6308C541.028 93.5614 540.053 92.7815 538.933 92.6924C537.917 92.6033 536.88 93.0712 536.3 93.9847C535.802 94.4971 535.449 95.1432 535.325 95.9008C535.159 97.0816 535.698 98.2179 536.507 98.9531C537.233 99.5993 538.332 99.978 539.265 99.733C539.784 99.5993 540.281 99.3765 540.675 98.9977C541.069 98.619 541.38 98.1733 541.567 97.6386C541.92 96.7028 541.94 95.5666 541.526 94.6308Z" fill="#B8D5DB"/>
<path d="M546.48 94.8537C546.439 94.5863 546.356 94.3635 546.211 94.163C546.128 94.0739 546.045 93.9848 545.962 93.8957C545.754 93.7397 545.547 93.6283 545.298 93.606C545.112 93.5837 544.925 93.606 544.759 93.6728C544.572 93.7174 544.427 93.7843 544.282 93.918C544.137 94.0294 544.013 94.1853 543.95 94.3635C543.847 94.5195 543.784 94.72 543.764 94.9205C543.764 95.0542 543.764 95.188 543.764 95.3216C543.805 95.589 543.888 95.8118 544.033 96.0123C544.116 96.1014 544.199 96.1905 544.282 96.2797C544.489 96.4356 544.697 96.547 544.946 96.5693C545.132 96.5916 545.319 96.5693 545.485 96.5025C545.672 96.4579 545.817 96.391 545.962 96.2574C546.107 96.146 546.231 95.99 546.294 95.8118C546.397 95.6558 546.46 95.4553 546.48 95.2548C546.48 95.1211 546.48 94.9874 546.48 94.8537Z" fill="#B8D5DB"/>
<path d="M546.213 87.5005C546.213 87.5005 546.151 87.3445 546.13 87.2554C546.089 87.1886 546.068 87.1217 546.027 87.0549C545.985 87.0103 545.923 86.9435 545.882 86.899L545.695 86.7875C545.695 86.7875 545.488 86.7207 545.384 86.7207C545.322 86.7207 545.239 86.7207 545.176 86.743C545.114 86.743 545.052 86.7876 544.99 86.8321C544.928 86.8544 544.865 86.899 544.824 86.9658C544.741 87.0327 544.679 87.1218 544.637 87.2332C544.617 87.3223 544.596 87.4114 544.554 87.4782C544.492 87.6342 544.471 87.8125 544.492 87.9907C544.513 88.1689 544.575 88.3026 544.679 88.4363C544.782 88.5699 544.907 88.6591 545.052 88.7259C545.156 88.7705 545.28 88.7927 545.405 88.7927C545.529 88.7927 545.633 88.7928 545.757 88.7259C545.902 88.6591 546.027 88.5477 546.11 88.414C546.296 88.1467 546.359 87.7679 546.213 87.456V87.5005Z" fill="#B8D5DB"/>
<path d="M490.013 90.5308C490.013 90.5308 489.847 90.3526 489.764 90.2635C489.163 89.35 488.188 88.7707 487.131 88.7484C485.513 88.7261 483.875 89.6842 483.253 91.3552C482.61 93.0708 483.253 95.0983 484.621 96.19C486.052 97.3263 488.064 97.2372 489.37 95.9227C490.055 95.232 490.532 94.3853 490.677 93.3827C490.822 92.4024 490.573 91.3552 490.013 90.5531V90.5308Z" fill="#B8D5DB"/>
<path d="M480.617 92.9367C480.617 92.9367 480.597 92.8921 480.576 92.8698L480.514 92.6693C480.452 92.4911 480.348 92.3351 480.203 92.2237C480.12 92.1123 480.037 92.0454 479.933 92.0009C479.933 92.0009 479.892 92.0009 479.871 92.0009L479.684 91.8895C479.684 91.8895 479.539 91.8672 479.456 91.8449C479.456 91.8449 479.435 91.8449 479.415 91.8449H479.394C479.332 91.8449 479.29 91.8004 479.228 91.8226C479.124 91.8226 479.041 91.8226 478.938 91.8672C478.896 91.8672 478.855 91.9118 478.834 91.9118C478.793 91.9118 478.751 91.934 478.71 91.9563C478.544 92.0232 478.399 92.1345 478.295 92.2905C478.191 92.3796 478.129 92.4688 478.087 92.5802C478.025 92.6693 478.005 92.7806 477.984 92.8921C477.984 92.9366 477.922 92.9589 477.901 93.0035C477.859 93.1372 477.839 93.2708 477.797 93.4045C477.756 93.6942 477.797 93.9615 477.901 94.2289C477.963 94.3403 478.025 94.4517 478.087 94.5854C478.253 94.8082 478.44 94.9641 478.689 95.0755C478.875 95.1647 479.062 95.2093 479.27 95.187C479.456 95.187 479.643 95.1869 479.829 95.0755C480.016 95.0087 480.161 94.875 480.286 94.719C480.431 94.5854 480.535 94.4294 480.597 94.2289C480.68 94.0284 480.721 93.8278 480.7 93.605C480.7 93.4045 480.7 93.204 480.597 93.0035L480.617 92.9367Z" fill="#B8D5DB"/>
<path d="M489.122 85.3841C489.08 85.2727 488.976 85.1836 488.914 85.0944C488.893 85.0499 488.893 84.9831 488.852 84.9385C488.79 84.8494 488.707 84.7603 488.603 84.7157C488.499 84.6489 488.396 84.6043 488.292 84.582C488.209 84.582 488.147 84.6043 488.064 84.6266C487.981 84.6266 487.898 84.5821 487.815 84.6043C487.608 84.6489 487.4 84.738 487.234 84.8717C487.069 85.0276 486.944 85.2059 486.84 85.4064C486.757 85.6292 486.737 85.8743 486.757 86.1194C486.799 86.3422 486.882 86.565 487.006 86.7432C487.131 86.9215 487.317 87.0551 487.504 87.1442C487.711 87.2334 487.94 87.2557 488.147 87.2334C488.354 87.1888 488.562 87.0997 488.728 86.966C488.893 86.8101 489.018 86.6318 489.122 86.4313C489.184 86.253 489.225 86.0971 489.205 85.8966C489.205 85.7183 489.205 85.54 489.122 85.3841Z" fill="#B8D5DB"/>
<path d="M496.046 89.3491C496.025 89.1708 495.963 89.0149 495.86 88.8812C495.756 88.7475 495.631 88.6362 495.486 88.5693C495.279 88.4802 495.279 88.5025 495.113 88.5025C495.03 88.5025 494.947 88.5025 494.864 88.547C494.823 88.547 494.781 88.547 494.74 88.5915C494.595 88.6584 494.47 88.7698 494.366 88.9035C494.263 89.0595 494.201 89.2154 494.18 89.3937V89.5942C494.138 89.7724 494.159 89.9506 494.221 90.1289C494.263 90.1957 494.304 90.2849 494.346 90.3517C494.449 90.4854 494.574 90.5968 494.74 90.6636C494.864 90.7304 494.989 90.7528 495.113 90.7305C495.237 90.7305 495.362 90.7304 495.486 90.6636C495.611 90.619 495.714 90.53 495.777 90.4408C495.88 90.3517 495.942 90.2403 495.984 90.1066C496.046 89.9283 496.067 89.7501 496.046 89.5719C496.046 89.505 496.046 89.4382 496.025 89.3714L496.046 89.3491Z" fill="#B8D5DB"/>
<path d="M0.000937885 41.9379C-0.082013 50.3598 5.35128 56.5983 10.8053 61.9679C21.1534 72.1499 33.285 80.7946 46.8889 84.8942C60.3062 88.9492 75.2581 88.2586 87.5764 80.8392C87.6386 80.9061 87.7215 80.9506 87.7837 81.0175C87.9704 81.1957 88.157 81.1734 88.3022 81.062C100.724 88.5259 113.872 94.5861 127.414 99.3318C123.204 98.8417 118.994 98.2846 114.784 97.7053C92.3668 94.6975 68.0414 91.9571 47.3659 104.055C46.5364 104.545 46.4534 105.749 47.3659 106.216C53.8568 109.714 61.0113 111.541 68.2281 112.143C81.6246 113.279 94.876 110.561 108.003 108.088C115.199 106.729 122.395 105.481 129.674 104.902C133.282 104.612 136.891 104.523 140.499 104.724C143.174 104.88 145.849 105.192 148.504 105.57C167.375 110.182 186.682 112.321 206.03 112.343C205.284 112.499 204.516 112.611 203.77 112.767C191.306 115.507 179.403 120.409 167.168 124.085C161.029 125.934 154.787 127.472 148.442 128.252C145.269 128.63 142.054 128.898 138.861 128.786C136.289 128.697 133.821 128.274 131.354 127.605C130.856 127.316 130.358 127.026 129.861 126.714C129.176 126.291 128.596 127.472 129.176 127.962C134.858 132.841 142.013 135.404 149.147 136.562C162.875 138.79 176.645 135.626 189.523 130.546C196.429 127.828 203.127 124.575 209.825 121.3C216.441 118.069 223.18 114.95 229.63 111.341C246.718 109.915 263.681 107.019 280.396 102.964C281.951 102.585 283.486 102.184 285.041 101.783C275.999 105.905 267.041 110.249 258.269 114.95C252.98 117.78 247.796 120.81 242.777 124.107C240.206 125.801 237.697 127.583 235.229 129.477C233.943 130.457 232.699 131.46 231.455 132.485C231.247 132.663 231.061 132.864 230.853 133.064C230.231 133.421 229.609 133.777 229.008 134.156C228.655 134.379 228.572 134.735 228.614 135.092C228.551 135.114 228.468 135.136 228.406 135.158C227.058 135.671 227.929 137.698 229.236 137.32C233.238 136.161 237.22 135.181 241.326 134.557C245.349 133.933 249.393 133.532 253.437 133.131C260.57 132.418 267.725 131.683 274.672 129.744C280.603 128.096 286.223 125.4 291.387 121.857C296.364 118.426 300.885 114.126 304.68 109.247C306.587 106.796 308.329 104.189 309.885 101.448C311.316 98.9085 312.726 96.2126 313.514 93.3384C314.136 93.1379 314.779 92.9374 315.401 92.7146C321.228 90.7317 327.014 88.6373 332.758 86.4093C338.503 84.1813 344.123 81.6859 349.743 79.1682C350.054 79.0345 349.867 78.4998 349.535 78.6335C346.756 79.7029 343.978 80.7947 341.157 81.7304C335.973 83.446 330.892 85.5181 325.749 87.4119C323.261 85.4512 320.088 84.2926 317.164 83.3569C313.929 82.332 310.611 81.5967 307.251 81.0843C294.29 79.1236 281.163 80.5718 268.14 79.6806C262.271 79.2796 256.423 78.3884 250.803 76.5169C245.722 74.8459 241.098 72.2391 236.722 69.0753C236.577 68.8748 236.432 68.6965 236.307 68.4737C236.038 68.0726 235.644 68.0058 235.312 68.1395C234.565 67.9612 234.005 69.0084 234.648 69.6768C234.856 69.8996 235.063 70.0778 235.291 70.2784C238.506 74.8681 242.819 78.3661 247.526 81.062C252.109 83.6911 257.004 85.6295 261.939 87.345C267.393 89.2611 272.972 90.7762 278.612 91.8902C284.315 93.0042 290.08 93.6727 295.887 93.9177C298.769 94.0291 301.673 94.0737 304.555 93.9846C303.456 94.2965 302.357 94.6084 301.258 94.9872C299.391 95.611 297.546 96.324 295.7 97.0815C287.737 99.3541 279.711 101.404 271.624 103.142C263.163 104.969 254.619 106.439 246.054 107.62C245.888 107.553 245.743 107.486 245.556 107.486C245.287 107.464 244.996 107.442 244.727 107.42C244.188 107.353 243.669 107.308 243.13 107.219C242.238 107.085 241.347 107.019 240.455 106.863C234.213 104.211 228.987 99.7552 224.59 94.3411C215.798 83.5129 210.655 70.0556 202.982 58.403C199.456 53.0335 195.288 48.065 190.29 44.2551C186.018 41.0021 181.041 38.2394 175.774 37.4596C175.318 37.2145 174.882 36.9694 174.426 36.7689C173.907 36.5461 173.431 37.2367 173.742 37.6824C173.679 37.9497 173.762 38.2617 174.115 38.3285C174.322 38.3731 174.53 38.4176 174.737 38.4622C177.288 40.356 179.735 42.2944 181.974 44.6338C184.422 47.1961 186.578 50.0925 188.507 53.1003C195.972 64.6415 200.265 78.2324 208.519 89.2166C212.355 94.341 217.021 98.7302 222.226 102.161C226.851 105.192 231.973 107.665 237.323 108.734C224.922 110.093 212.459 110.695 200.016 110.383C194.127 110.249 188.237 109.87 182.368 109.291C182.368 109.068 182.265 108.801 182.037 108.756C181.767 108.69 181.518 108.623 181.249 108.534C181.249 108.422 181.228 108.333 181.186 108.222C178.926 103.03 176.106 98.1287 172.808 93.6281C161.195 77.7423 143.941 66.6467 125.257 63.8616C124.365 63.728 123.743 65.0648 124.531 65.6664C129.052 68.9862 133.179 72.8406 137.098 76.9624C143.879 84.0921 150.184 91.8234 157.649 98.1733C161.237 101.226 165.094 103.944 169.242 106.06C171.066 106.996 173.016 107.843 175.027 108.511C162.419 106.907 149.914 104.3 137.679 100.602C130.649 98.4629 123.701 95.9675 116.899 93.1156C117.045 92.8483 117.086 92.5141 116.899 92.1576C113.934 86.6098 110.886 81.1289 107.692 75.7148C96.3069 56.3309 83.5947 37.9275 69.6797 20.5489C69.0783 19.7914 67.7926 20.237 67.9377 21.3064C68.788 27.9459 70.5299 34.4295 72.9355 40.5788C77.3112 51.7412 83.8228 61.7896 91.4128 70.7017C95.353 75.3137 99.5628 79.6583 103.938 83.7802C106.137 85.83 108.356 87.8352 110.637 89.7959C111.093 90.1969 111.549 90.5757 112.005 90.9767C101.595 86.3202 91.4958 80.817 81.8942 74.4225C77.4564 71.4593 73.1222 68.2954 68.9124 64.9757C67.129 59.4947 64.9515 54.1921 62.4008 49.0899C53.3176 30.9538 39.7552 15.3353 23.3309 4.64077C22.7087 4.23973 21.6304 4.59622 21.817 5.55427C22.9576 11.3249 24.8655 16.8949 27.5406 22.0416C29.6144 26.0298 32.1029 29.9957 35.1514 33.2931C36.6445 35.4989 38.2206 37.6155 39.9003 39.6653C49.4189 51.3402 60.4721 61.5445 72.3756 70.3675C72.189 70.3007 72.0023 70.2338 71.795 70.167C66.258 68.2955 60.5758 67.0478 54.9352 65.6664C48.6724 64.1291 42.4718 62.2575 36.4164 59.9404C30.3402 57.6232 24.3885 54.905 18.6234 51.8081C12.7546 48.6443 7.19693 45.0126 1.63922 41.2918C1.10004 40.9353 0.104628 41.0913 0.0838907 41.9602L0.000937885 41.9379ZM25.3217 11.7482C27.0637 14.4886 28.8056 17.2291 30.6306 19.925C35.7528 27.5671 41.2483 34.9196 46.9926 42.027C49.8752 45.5919 52.8407 49.0453 55.8684 52.4542C57.8592 54.6822 59.85 57.0216 61.9445 59.2051C60.4929 57.9351 59.0412 56.6652 57.6311 55.3506C50.3521 48.5997 43.8612 41.0912 37.4118 33.4491C34.3841 29.5278 31.4186 25.6288 29.1374 21.1281C27.6236 18.1203 26.3586 14.9788 25.3424 11.7482H25.3217ZM65.2626 61.0321C63.8109 59.2719 62.2348 57.6232 60.721 55.9076C59.0205 53.9915 57.3407 52.0531 55.6817 50.0925C44.6493 37.1476 34.5707 23.178 25.5083 8.56212C28.8264 10.9015 32.02 13.3969 35.0684 16.1374C48.4235 28.1464 58.8339 43.6758 65.2626 61.0321ZM74.4286 33.3823C75.7144 35.8108 77.0831 38.2171 78.4932 40.5788C83.7399 49.4018 89.4842 57.8683 95.3945 66.1788C100.662 73.5536 106.095 80.7947 111.342 88.214C111.176 88.058 111.01 87.9244 110.844 87.7907C108.439 85.6072 106.033 83.4237 103.69 81.1511C88.1155 66.0897 74.5116 47.2852 70.364 24.8267C70.4263 24.9158 70.4885 24.9827 70.5507 25.0718C70.5507 25.1832 70.5507 25.3168 70.5714 25.4505C71.0069 26.921 71.7949 28.3024 72.4586 29.6615C73.0807 30.9092 73.7236 32.1792 74.3872 33.4046L74.4286 33.3823ZM111.425 86.8103C109.102 83.2901 106.759 79.792 104.374 76.3386C98.6088 67.9612 92.6571 59.7176 87.0579 51.1842C84.2791 46.9287 81.6039 42.6063 79.1154 38.1503C77.8504 35.8777 76.6268 33.6051 75.424 31.2879C75.424 31.2434 75.3826 31.1988 75.3618 31.1766C76.772 33.0035 78.1407 34.8305 79.5094 36.6798C91.2262 52.5656 101.885 69.3426 111.425 86.8326V86.8103ZM186.101 46.9064C188.445 49.0899 190.705 51.3847 192.82 53.9024C197.03 58.9154 200.576 64.441 203.666 70.323C206.839 76.3609 209.659 82.5994 213.185 88.4145C216.026 93.0934 219.302 97.5048 223.325 101.047C222.372 100.424 221.418 99.7997 220.484 99.0868C215.321 95.21 210.945 90.3974 207.357 84.8497C203.521 78.9231 200.535 72.4173 197.403 66.0228C194.542 60.1408 191.535 54.3035 187.74 49.0231C187.221 48.3101 186.661 47.5748 186.122 46.8619L186.101 46.9064ZM235.436 106.84C233.694 106.283 231.994 105.615 230.376 104.724C227.556 103.164 224.984 101.114 222.662 98.7971C213.496 89.6845 209.12 76.6728 202.733 65.4436C199.602 59.9404 195.952 54.8159 191.783 50.1593C188.735 46.7727 185.417 43.4975 181.829 40.6902C182.472 40.9798 183.094 41.2472 183.716 41.5814C186.765 43.1856 189.482 45.3022 192.032 47.6862C202.132 57.1108 207.834 70.4121 214.657 82.488C219.945 91.8234 226.519 101.226 235.436 106.818V106.84ZM323.406 88.2808C320.793 88.2363 318.118 88.615 315.505 88.7264C312.353 88.8824 309.2 88.9492 306.069 88.8378C295.099 88.5036 284.17 87.2559 273.428 84.7605C269.26 83.7802 265.153 82.6216 261.068 81.2848C270.359 82.5548 279.857 82.1092 289.189 82.0423C295.534 81.9978 301.921 82.1537 308.205 83.1563C311.274 83.6465 314.343 84.3372 317.309 85.3175C319.652 86.0751 321.892 87.1223 324.194 87.9912C324.152 87.9912 324.09 88.0357 324.049 88.0357C323.82 88.1248 323.613 88.1917 323.385 88.2585L323.406 88.2808ZM311.088 92.4249C305.302 92.5809 299.537 92.7369 293.751 92.2913C282.677 91.4446 271.603 89.1497 261.089 85.2507C255.51 83.1786 249.704 80.6832 244.706 77.0961C246.427 77.8759 248.211 78.5666 249.911 79.2573C252.794 80.4382 255.697 81.5299 258.642 82.5103C269.322 86.0528 280.334 88.4368 291.449 89.5954C296.924 90.1524 302.398 90.3306 307.894 90.2415C310.735 90.197 313.555 90.0855 316.396 89.885C317.371 89.8182 318.366 89.7514 319.362 89.6845C316.625 90.6203 313.866 91.5337 311.108 92.4249H311.088ZM239.522 130.97C242.632 129.432 245.784 128.007 248.957 126.625C260.197 121.746 271.665 117.446 282.822 112.277C288.255 109.759 293.668 107.063 298.811 103.899C301.258 102.384 303.684 100.802 306.028 99.109C308.205 97.5494 310.382 95.923 312.29 93.9846C310.839 96.6359 309.532 99.3987 307.894 101.961C306.048 104.88 303.954 107.62 301.673 110.16C293.17 119.674 282.2 125.89 270.193 128.452C263.266 129.923 256.216 130.457 249.206 131.17C244.602 131.638 239.874 132.195 235.27 133.198C236.681 132.44 238.091 131.683 239.522 130.97ZM293.73 100.379C296.571 99.1536 299.433 98.0173 302.357 97.0593C303.954 96.5245 305.592 96.0343 307.23 95.6333C307.894 95.4551 308.599 95.3437 309.263 95.1877C307.541 96.4354 305.841 97.7276 304.078 98.9085C301.258 100.802 298.355 102.496 295.41 104.144C284.958 109.982 273.884 114.349 262.831 118.693C257.107 120.944 251.384 123.216 245.764 125.712C244.125 126.447 242.466 127.182 240.828 127.94C242.404 126.892 243.98 125.868 245.577 124.865C255.759 118.471 266.501 113.123 277.285 108.021C282.76 105.414 288.214 102.785 293.772 100.401L293.73 100.379ZM147.467 134.022C144.978 133.51 142.531 132.752 140.167 131.839C144.398 132.463 148.711 132.507 152.962 132.24C165.405 131.438 177.412 127.583 189.17 123.417C195.122 121.322 201.032 119.139 207.046 117.245C210.157 116.265 213.288 115.418 216.441 114.683C218.328 114.237 220.256 113.925 222.164 113.547C217.187 115.841 212.231 118.27 207.295 120.609C194.293 126.781 180.875 132.886 166.629 134.646C160.262 135.426 153.792 135.314 147.488 134.022H147.467ZM215.113 113.056C211.837 113.948 208.581 114.973 205.346 116.042C193.463 119.941 181.829 124.843 169.718 127.94C163.663 129.477 157.504 130.591 151.283 130.881C147.28 131.059 143.34 130.792 139.421 130.235C142.759 130.39 146.098 130.123 149.396 129.7C162.191 128.029 174.467 123.439 186.744 119.473C193.069 117.446 199.436 115.574 205.927 114.349C208.975 113.769 212.023 113.324 215.113 113.056ZM178.283 107.42C176.914 106.462 175.525 105.548 174.177 104.523C172.166 102.986 170.237 101.337 168.391 99.5992C161.838 93.4498 155.99 86.4761 149.624 80.1263C146.471 76.9847 143.195 74.066 139.607 71.5484C137.907 70.3452 136.123 69.2312 134.298 68.2286C134.112 68.1395 133.925 68.0281 133.739 67.939C135.812 68.5628 137.865 69.2535 139.898 70.1002C156.446 76.8734 170.486 90.3529 178.283 107.464V107.42ZM175.09 106.796C174.882 106.729 174.654 106.662 174.447 106.573C172.145 105.704 169.905 104.59 167.748 103.342C153.979 95.2322 144.647 81.3962 133.054 70.4343C133.469 70.6349 133.863 70.8354 134.278 71.0582C136.393 72.2168 138.405 73.5536 140.354 75.0018C147.384 80.2153 153.46 86.5875 159.578 92.9374C162.668 96.1458 165.882 99.2427 169.242 102.139C171.087 103.721 173.037 105.392 175.09 106.818V106.796ZM108.687 99.1758C100.766 98.8639 92.823 98.9531 84.9012 99.4878C74.0968 100.223 63.251 101.649 52.6333 103.988C56.7394 101.983 61.0321 100.424 65.4699 99.421C79.8204 96.1235 94.2539 97.3266 108.687 99.1758ZM132.639 102.607C131.043 102.674 129.446 102.763 127.89 102.897C113.913 104.033 100.289 107.887 86.3528 109.447C74.7604 110.739 62.7118 110.494 51.8038 105.815C57.6518 104.501 63.5206 103.32 69.4516 102.473C81.1891 100.802 93.0304 100.089 104.872 100.334C110.74 100.446 116.63 100.802 122.478 101.404C125.879 101.738 129.259 102.184 132.639 102.629V102.607ZM82.309 77.2744C79.4264 77.2744 76.5231 77.319 73.6406 77.2076C70.1152 77.0739 66.569 76.8065 63.0644 76.3832C50.8498 74.935 38.5316 71.8157 27.3955 66.0897C18.1879 61.3663 10.0795 54.4371 4.08627 45.5696C8.98038 49.0007 14.1441 52.0532 19.37 54.7936C30.9001 60.8093 43.0317 65.1985 55.5573 68.0949C63.3132 69.8774 71.6498 71.5038 79.0117 75.1355C80.1108 75.8708 81.2099 76.5614 82.309 77.2966V77.2744ZM2.42726 46.8396C5.53791 51.3402 9.22923 55.2838 13.3975 58.7372C22.9161 66.6244 34.2597 71.5929 45.8935 74.6453C52.2393 76.3164 58.7094 77.4303 65.2211 78.0096C71.1936 78.5443 77.4356 78.7895 83.4081 77.9874C84.1132 78.433 84.7975 78.9231 85.5026 79.3464C79.2605 82.8222 72.3549 84.6491 65.3248 85.0279C51.7623 85.7631 38.4694 80.8838 27.1051 73.1302C21.4437 69.2535 16.1971 64.7306 11.2823 59.8289C7.81906 56.3755 3.77521 51.964 2.40652 46.8396H2.42726Z" fill="#B8D5DB"/>
<path d="M44.048 55.9286C44.3175 55.1711 44.9189 54.5473 45.6033 54.1908C46.1632 53.9234 46.8475 53.8566 47.4489 54.0126C48.154 54.2131 48.7554 54.5695 49.2324 55.1711C49.7094 55.7727 49.9167 56.5748 49.8545 57.3546C49.7923 58.1567 49.3568 58.8696 48.7969 59.4043C47.8637 60.2955 46.3913 60.3847 45.4166 59.5603C44.9604 59.3375 44.5456 58.9811 44.2761 58.5577C44.0479 58.179 43.882 57.7556 43.8613 57.2878C43.8406 56.7976 43.9028 56.3742 44.048 55.9286Z" fill="#B8D5DB"/>
<path d="M40.4614 49.8909C40.4821 49.7795 40.5236 49.6458 40.5444 49.5344C40.5651 49.3116 40.648 49.1334 40.7725 48.9552C40.8347 48.8883 40.9176 48.7992 40.9798 48.7324C41.1457 48.5987 41.3324 48.5095 41.519 48.4872C41.6642 48.465 41.8301 48.4873 41.9545 48.5319C42.0997 48.5541 42.2241 48.621 42.3485 48.7324C42.473 48.8215 42.5559 48.9552 42.6181 49.0889C42.7011 49.2225 42.7633 49.3785 42.7633 49.5344C42.784 49.7572 42.7633 49.9577 42.6803 50.1583C42.6389 50.2697 42.5767 50.3811 42.5352 50.5148C42.4937 50.6039 42.4315 50.693 42.39 50.7821C42.3071 50.9158 42.2034 51.0049 42.0582 51.0718C41.9752 51.1386 41.8923 51.1832 41.7886 51.1832C41.7471 51.2055 41.7057 51.2278 41.6642 51.25C41.5605 51.2946 41.4568 51.3169 41.3531 51.2946C41.2494 51.2946 41.1457 51.2946 41.0628 51.2277C41.0006 51.1832 40.9591 51.1609 40.8969 51.1163C40.7932 51.0272 40.7103 50.9158 40.6688 50.7821V50.7376C40.6688 50.7376 40.6273 50.6708 40.6066 50.6262C40.5651 50.5816 40.5236 50.5371 40.5029 50.4702C40.4199 50.2697 40.3992 50.0692 40.4407 49.8464L40.4614 49.8909Z" fill="#B8D5DB"/>
<path d="M37.6396 54.4153C37.7018 54.2817 37.7848 54.1703 37.8885 54.0812C38.0129 53.9698 38.158 53.9252 38.3032 53.9029H38.3447H38.4484C38.5935 53.8806 38.7387 53.9029 38.8631 53.9698C38.9253 54.0143 38.9875 54.0366 39.0498 54.0812C39.1534 54.1703 39.2364 54.304 39.2986 54.4376C39.3401 54.549 39.3608 54.6604 39.3608 54.7718C39.3608 54.8832 39.3608 54.9946 39.2986 55.106C39.2571 55.2174 39.1949 55.3065 39.112 55.3734C39.0498 55.4625 38.9668 55.5293 38.8631 55.5739C38.718 55.6407 38.5935 55.6631 38.4276 55.6408C38.3861 55.6408 38.3654 55.6408 38.3239 55.6408H38.2825C38.1373 55.6408 37.9921 55.5516 37.8677 55.4625C37.764 55.3734 37.6811 55.262 37.6189 55.106C37.5774 54.9946 37.5566 54.8832 37.5566 54.7718C37.5566 54.6604 37.5566 54.549 37.6189 54.4376L37.6396 54.4153Z" fill="#B8D5DB"/>
<path d="M132.451 92.5375C132.721 91.9582 133.115 91.5348 133.633 91.2229C133.965 91.0224 134.338 90.9778 134.712 90.9778C135.334 90.6882 136.039 90.5991 136.682 90.7773C137.138 90.911 137.573 91.0893 137.926 91.4235C138.299 91.7577 138.569 92.1587 138.776 92.6265C139.129 93.4955 139.087 94.4758 138.776 95.3447C138.465 96.2137 137.802 96.9266 137.014 97.2831C136.163 97.6619 135.23 97.6173 134.38 97.2831C133.53 96.9489 132.845 96.236 132.451 95.367C132.078 94.5204 132.016 93.3618 132.43 92.5152L132.451 92.5375Z" fill="#B8D5DB"/>
<path d="M130.607 86.5869C130.607 86.5869 130.648 86.5201 130.669 86.4756C130.69 86.4533 130.731 86.4087 130.752 86.3864C130.69 86.4755 130.648 86.587 130.586 86.6761C130.669 86.5201 130.752 86.3418 130.855 86.2081C130.938 86.119 131.021 86.0299 131.125 85.9408C131.229 85.874 131.332 85.8071 131.436 85.7403C131.561 85.6957 131.685 85.6735 131.809 85.6289C131.934 85.6289 132.058 85.6289 132.183 85.6289L132.535 85.7403C132.639 85.8071 132.743 85.874 132.846 85.9408C132.929 86.0299 133.012 86.119 133.095 86.2304C133.22 86.3864 133.303 86.5646 133.323 86.7652C133.365 86.8988 133.385 87.0326 133.365 87.1662C133.365 87.2999 133.365 87.4336 133.302 87.5673C133.302 87.701 133.24 87.8124 133.157 87.9238C133.116 88.0575 133.033 88.1465 132.929 88.2357C132.846 88.3471 132.763 88.4139 132.639 88.4808C132.535 88.5699 132.411 88.6145 132.286 88.6368C132.162 88.6813 132.037 88.7036 131.913 88.6813C131.726 88.6813 131.54 88.6813 131.374 88.5699C131.332 88.5699 131.312 88.5476 131.291 88.5253C131.27 88.5253 131.229 88.4808 131.208 88.4808C131.249 88.4808 131.312 88.503 131.353 88.5253C131.229 88.503 131.125 88.4585 131.021 88.4139C130.835 88.3248 130.69 88.2134 130.586 88.0351C130.482 87.9015 130.42 87.7678 130.399 87.6118C130.358 87.4559 130.337 87.2999 130.358 87.1439C130.378 86.9434 130.461 86.7429 130.586 86.5869H130.607Z" fill="#B8D5DB"/>
<path d="M125.65 89.8172C125.671 89.6389 125.733 89.483 125.837 89.327C125.899 89.2602 125.961 89.1933 126.024 89.1487C126.169 89.0373 126.314 88.9705 126.501 88.9482C126.625 88.9259 126.77 88.9482 126.874 88.9927C126.998 89.015 127.102 89.0819 127.206 89.171C127.309 89.2601 127.392 89.3492 127.434 89.4829C127.517 89.5943 127.558 89.728 127.558 89.8617C127.558 89.9508 127.558 90.0399 127.558 90.1514C127.538 90.3296 127.475 90.4856 127.372 90.6415C127.309 90.7084 127.247 90.7752 127.185 90.8197C127.04 90.9311 126.895 90.998 126.708 91.0202C126.584 91.0425 126.459 91.0203 126.335 90.9757C126.21 90.9534 126.107 90.8866 126.003 90.7975C125.899 90.7084 125.816 90.6192 125.775 90.4855C125.692 90.3741 125.65 90.2404 125.65 90.1067C125.65 90.0176 125.65 89.9286 125.65 89.8172Z" fill="#B8D5DB"/>
<path d="M152.569 118.738C153.087 119.139 153.709 119.428 154.352 119.495C155.161 119.562 155.887 119.339 156.571 118.871C157.028 118.559 157.422 118.092 157.691 117.557C157.733 117.49 157.774 117.445 157.816 117.379C157.899 117.223 157.94 117.022 157.981 116.844C157.981 116.799 158.023 116.755 158.023 116.71C158.085 116.443 158.127 116.175 158.127 115.886C158.127 115.797 158.127 115.708 158.127 115.641C158.085 114.839 157.836 114.059 157.359 113.48C157.193 113.301 157.007 113.123 156.82 112.967C156.654 112.811 156.488 112.677 156.322 112.544C156.157 112.388 155.991 112.232 155.804 112.12C155.265 111.809 154.56 111.719 153.979 111.853C152.527 112.165 151.449 113.39 151.138 114.928C150.848 116.354 151.491 117.936 152.59 118.76L152.569 118.738Z" fill="#B8D5DB"/>
<path d="M147.053 119.294C147.053 119.227 147.073 119.16 147.115 119.093C147.115 118.959 147.177 118.826 147.26 118.714C147.302 118.581 147.385 118.492 147.488 118.402C147.571 118.291 147.675 118.202 147.799 118.157C147.903 118.068 148.027 118.024 148.152 118.001C148.338 117.935 148.546 117.912 148.732 117.957L149.106 118.068C149.209 118.135 149.313 118.202 149.438 118.269C149.521 118.358 149.624 118.469 149.707 118.558C149.769 118.67 149.832 118.803 149.894 118.915C149.935 119.049 149.956 119.182 149.997 119.338C149.997 119.472 149.997 119.628 149.997 119.762L149.894 120.163C149.832 120.274 149.769 120.385 149.707 120.519C149.624 120.608 149.521 120.72 149.438 120.809C149.334 120.876 149.209 120.942 149.106 121.009C148.919 121.098 148.732 121.143 148.525 121.121C148.401 121.121 148.256 121.121 148.152 121.054C148.027 121.054 147.903 120.987 147.799 120.898C147.675 120.853 147.592 120.764 147.509 120.653C147.405 120.564 147.322 120.452 147.281 120.319C147.177 120.14 147.094 119.94 147.094 119.717C147.094 119.583 147.094 119.427 147.094 119.294H147.053Z" fill="#B8D5DB"/>
<path d="M143.9 115.396C143.9 115.396 143.941 115.24 143.983 115.196C144.003 115.129 144.045 115.062 144.107 115.018C144.148 114.951 144.231 114.929 144.294 114.884C144.314 114.862 144.335 114.817 144.377 114.795C144.46 114.75 144.522 114.706 144.605 114.661C144.729 114.594 144.854 114.572 144.999 114.594C145.082 114.594 145.165 114.594 145.248 114.639C145.372 114.661 145.496 114.728 145.579 114.817C145.621 114.839 145.662 114.884 145.704 114.906C145.828 115.018 145.911 115.129 145.973 115.285C146.015 115.396 146.036 115.53 146.036 115.664C146.036 115.797 146.036 115.909 145.973 116.02C145.911 116.176 145.828 116.31 145.704 116.399C145.662 116.421 145.621 116.466 145.579 116.488L145.351 116.622C145.227 116.689 145.102 116.711 144.957 116.689C144.874 116.689 144.791 116.689 144.708 116.644C144.584 116.622 144.46 116.555 144.377 116.466L144.335 116.421C144.294 116.399 144.252 116.354 144.19 116.332C144.148 116.288 144.086 116.221 144.045 116.176C144.003 116.109 143.983 116.042 143.941 115.976C143.9 115.864 143.879 115.753 143.879 115.619C143.879 115.53 143.879 115.463 143.9 115.396Z" fill="#B8D5DB"/>
<path d="M204.349 102.095C204.536 102.63 204.847 103.076 205.241 103.454C205.635 103.856 206.133 104.078 206.651 104.19C207.584 104.435 208.704 104.056 209.409 103.41C210.239 102.675 210.778 101.516 210.591 100.357C210.487 99.6 210.114 98.9539 209.616 98.4414C209.036 97.5279 207.999 97.0823 206.983 97.1491C205.863 97.2382 204.868 98.0181 204.391 99.0876C203.976 100.001 203.997 101.16 204.349 102.095Z" fill="#B8D5DB"/>
<path d="M199.434 99.3088C199.475 99.0414 199.558 98.8186 199.703 98.6181C199.786 98.529 199.869 98.4399 199.952 98.3507C200.159 98.1948 200.367 98.0834 200.616 98.0611C200.802 98.0388 200.989 98.0611 201.155 98.1279C201.341 98.1725 201.487 98.2394 201.632 98.373C201.777 98.4844 201.901 98.6404 201.964 98.8186C202.067 98.9746 202.129 99.1751 202.15 99.3756C202.15 99.5093 202.15 99.643 202.15 99.7767C202.109 100.044 202.026 100.267 201.881 100.467C201.798 100.557 201.715 100.646 201.632 100.735C201.424 100.891 201.217 101.002 200.968 101.024C200.782 101.047 200.595 101.024 200.429 100.958C200.242 100.913 200.097 100.846 199.952 100.712C199.807 100.601 199.682 100.445 199.62 100.267C199.517 100.111 199.454 99.9104 199.434 99.7099C199.434 99.5762 199.434 99.4425 199.434 99.3088Z" fill="#B8D5DB"/>
<path d="M199.705 91.9576C199.705 91.9576 199.767 91.8016 199.788 91.7124C199.83 91.6456 199.85 91.5788 199.892 91.5119C199.933 91.4674 199.996 91.4006 200.037 91.356L200.224 91.2446C200.224 91.2446 200.431 91.1777 200.535 91.1777C200.597 91.1777 200.68 91.1778 200.742 91.2C200.804 91.2 200.867 91.2446 200.929 91.2892C200.991 91.3115 201.053 91.356 201.095 91.4229C201.178 91.4897 201.24 91.5788 201.281 91.6902C201.302 91.7793 201.323 91.8684 201.364 91.9353C201.426 92.0912 201.447 92.2695 201.426 92.4477C201.406 92.626 201.343 92.7596 201.24 92.8933C201.136 93.027 201.012 93.1161 200.867 93.1829C200.763 93.2275 200.638 93.2498 200.514 93.2498C200.39 93.2498 200.286 93.2498 200.161 93.1829C200.016 93.1161 199.892 93.0047 199.809 92.8711C199.622 92.6037 199.56 92.2249 199.705 91.913V91.9576Z" fill="#B8D5DB"/>
<path d="M255.903 94.9859C255.903 94.9859 256.069 94.8077 256.152 94.7185C256.754 93.8051 257.728 93.2258 258.786 93.2035C260.404 93.1812 262.042 94.1393 262.664 95.8103C263.307 97.5259 262.664 99.5534 261.295 100.645C259.864 101.781 257.853 101.692 256.546 100.378C255.862 99.6871 255.385 98.8404 255.24 97.8378C255.095 96.8574 255.344 95.8103 255.903 95.0082V94.9859Z" fill="#B8D5DB"/>
<path d="M265.299 97.3937C265.299 97.3937 265.32 97.3491 265.341 97.3268L265.403 97.1263C265.465 96.9481 265.569 96.7921 265.714 96.6807C265.797 96.5693 265.88 96.5024 265.984 96.4579C265.984 96.4579 266.025 96.4579 266.046 96.4579L266.232 96.3465C266.232 96.3465 266.378 96.3243 266.46 96.302C266.46 96.302 266.481 96.302 266.502 96.302H266.523C266.585 96.302 266.626 96.2574 266.689 96.2797C266.792 96.2797 266.875 96.2796 266.979 96.3242C267.02 96.3242 267.062 96.3688 267.083 96.3688C267.124 96.3688 267.166 96.3911 267.207 96.4133C267.373 96.4802 267.518 96.5916 267.622 96.7475C267.725 96.8367 267.788 96.9258 267.829 97.0372C267.891 97.1263 267.912 97.2377 267.933 97.3491C267.933 97.3936 267.995 97.416 268.016 97.4605C268.057 97.5942 268.078 97.7279 268.12 97.8616C268.161 98.1512 268.12 98.4185 268.016 98.6859C267.954 98.7973 267.891 98.9087 267.829 99.0424C267.663 99.2652 267.477 99.4212 267.228 99.5326C267.041 99.6217 266.855 99.6663 266.647 99.644C266.46 99.644 266.274 99.644 266.087 99.5326C265.901 99.4657 265.755 99.332 265.631 99.1761C265.486 99.0424 265.382 98.8864 265.32 98.6859C265.237 98.4854 265.195 98.2849 265.216 98.0621C265.216 97.8615 265.216 97.661 265.32 97.4605L265.299 97.3937Z" fill="#B8D5DB"/>
<path d="M256.795 89.8411C256.837 89.7297 256.941 89.6406 257.003 89.5515C257.023 89.5069 257.023 89.4401 257.065 89.3956C257.127 89.3064 257.21 89.2173 257.314 89.1727C257.417 89.1059 257.521 89.0613 257.625 89.0391C257.708 89.0391 257.77 89.0613 257.853 89.0836C257.936 89.0836 258.019 89.0391 258.102 89.0614C258.309 89.1059 258.517 89.195 258.683 89.3287C258.848 89.4847 258.973 89.6629 259.077 89.8634C259.159 90.0862 259.18 90.3313 259.159 90.5764C259.118 90.7992 259.035 91.022 258.911 91.2002C258.786 91.3785 258.6 91.5122 258.413 91.6013C258.206 91.6904 257.977 91.7127 257.77 91.6904C257.563 91.6459 257.355 91.5567 257.189 91.4231C257.023 91.2671 256.899 91.0888 256.795 90.8883C256.733 90.7101 256.692 90.5541 256.712 90.3536C256.712 90.1753 256.712 89.9971 256.795 89.8411Z" fill="#B8D5DB"/>
<path d="M249.869 93.8061C249.89 93.6279 249.952 93.4719 250.056 93.3382C250.159 93.2046 250.284 93.0932 250.429 93.0263C250.636 92.9372 250.636 92.9595 250.802 92.9595C250.885 92.9595 250.968 92.9595 251.051 93.004C251.093 93.004 251.134 93.004 251.176 93.0486C251.321 93.1154 251.445 93.2269 251.549 93.3605C251.653 93.5165 251.715 93.6725 251.735 93.8507V94.0512C251.777 94.2295 251.756 94.4077 251.694 94.5859C251.653 94.6528 251.611 94.7419 251.57 94.8087C251.466 94.9424 251.341 95.0538 251.176 95.1206C251.051 95.1875 250.927 95.2098 250.802 95.1875C250.678 95.1875 250.553 95.1875 250.429 95.1206C250.305 95.0761 250.201 94.987 250.139 94.8979C250.035 94.8088 249.973 94.6973 249.931 94.5636C249.869 94.3854 249.848 94.2072 249.869 94.0289C249.869 93.9621 249.869 93.8952 249.89 93.8284L249.869 93.8061Z" fill="#B8D5DB"/>
<path d="M402.708 59.4056C399.639 60.1632 396.674 61.3441 393.936 63.0151C392.63 63.8172 391.365 64.6861 390.162 65.6664C389.623 66.112 389.021 66.5799 388.461 67.0923C388.752 66.1343 389.001 65.154 389.208 64.1736C391.137 55.061 389.291 45.4582 384.501 37.7047C381.846 33.4046 378.362 29.6838 374.007 27.4112C373.738 27.2775 373.53 27.478 373.468 27.7231C373.281 27.6563 373.074 27.6786 372.95 27.9014C372.141 29.3496 371.539 30.8647 371.249 32.4911C370.606 30.4636 370.129 28.3693 369.88 26.1858C369.715 24.8045 368.138 24.8713 367.599 25.8962C359.76 40.6903 359.512 59.1829 367.164 74.1329C367.682 75.1578 368.263 76.1604 368.864 77.1408C368.201 76.6729 367.537 76.2272 366.894 75.7816C365.422 74.7345 363.949 73.7096 362.477 72.6624C359.947 70.88 357.396 68.8971 354.306 68.5183C353.456 68.4069 353.062 69.4095 353.456 70.1225C355.717 74.0215 358.578 77.4972 361.896 80.416C363.555 81.8865 365.318 83.201 367.184 84.3595C368.055 84.8943 368.947 85.3845 369.86 85.8523C370.606 86.2088 371.477 86.7435 372.327 86.7658C372.41 86.9886 372.639 87.1668 372.929 87.0777C373.302 86.9663 373.696 86.8104 374.069 86.6767C374.298 86.6767 374.526 86.6321 374.754 86.4762C374.775 86.4762 374.816 86.4316 374.837 86.4093C380.436 84.2704 385.641 80.7278 390.224 76.762C395.409 72.3059 399.909 66.9586 403.579 61.0098C403.973 60.3637 403.558 59.2719 402.729 59.4725L402.708 59.4056ZM391.116 67.3597C392.298 66.3794 393.542 65.4882 394.828 64.6861C395.409 64.3296 396.01 64.0622 396.591 63.7503C396.28 64.0845 395.948 64.4187 395.637 64.7306C393.874 66.4908 392.173 68.2955 390.411 70.0334C388.378 72.0609 386.367 74.1106 384.335 76.1604C385.475 74.3557 386.471 72.4396 387.259 70.4344C387.445 70.4567 387.632 70.4344 387.839 70.2784C389.021 69.4763 389.996 68.2509 391.095 67.3152L391.116 67.3597ZM373.841 28.4361C373.841 28.4361 373.841 28.4361 373.841 28.4139C380.166 33.7834 385.102 40.6902 386.927 49.2681C388.088 54.7714 387.839 60.4528 386.325 65.7555C386.388 65.2431 386.471 64.7307 386.512 64.1959C386.782 59.673 386.077 55.1278 384.418 50.9392C382.759 46.7282 380.332 42.9406 378.01 39.1307C376.807 37.1254 375.625 35.1202 374.588 33.0258C374.505 32.8699 373.821 31.2211 373.24 30.3745C373.406 29.7061 373.592 29.06 373.841 28.4584V28.4361ZM372.867 32.5134C373.198 33.2487 373.592 33.9393 373.8 34.3626C374.671 36.1896 375.687 37.9275 376.703 39.6431C378.881 43.3193 381.203 46.9064 382.821 50.9169C384.48 55.0164 385.185 59.4948 384.895 63.9731C384.832 64.9312 384.708 65.8892 384.563 66.825C384.127 57.601 379.192 49.6692 375.189 41.7597C374.546 40.4897 373.924 39.1975 373.323 37.883C373.261 37.6379 373.178 37.3928 373.115 37.1477C372.908 36.2119 372.784 35.2093 372.784 34.2513C372.784 33.672 372.804 33.0927 372.867 32.4911V32.5134ZM365.733 37.571C366.002 35.6995 366.728 34.0284 367.35 32.2683C367.35 32.2237 367.35 32.1792 367.35 32.1346C367.392 32.0232 367.413 31.9341 367.454 31.8227C367.164 35.2539 367.869 38.9969 368.657 42.0271C369.963 47.0401 372.141 51.7189 374.049 56.4869C377.201 64.3964 379.461 74.0215 374.837 81.53C372.867 79.2797 371.166 76.762 369.694 74.0438C372.763 67.6048 370.668 60.2746 368.491 53.9024C367.267 50.3153 366.002 46.6614 365.629 42.8292C365.463 41.0913 365.463 39.3089 365.712 37.571H365.733ZM368.823 72.3282C366.521 67.6048 364.945 62.458 364.24 57.3336C363.576 52.4542 363.68 47.4635 364.468 42.6064C364.758 45.5474 365.505 48.4215 366.417 51.2065C368.574 57.8683 371.477 65.399 368.823 72.3059V72.3282ZM362.124 74.6899C363.452 75.6257 364.779 76.5392 366.085 77.4749C367.454 78.433 368.802 79.5247 370.337 80.1931C370.544 80.2823 370.731 80.26 370.897 80.1931C371.664 81.2849 372.452 82.332 373.281 83.3792C373.053 83.2232 372.804 83.0673 372.576 82.9113C371.726 82.3098 370.876 81.6859 370.026 81.0843C368.387 79.9035 366.728 78.7003 365.09 77.5195C363.452 76.3386 361.793 75.1578 360.134 73.9769C358.972 73.1303 357.811 72.2391 356.588 71.4816C356.484 71.3479 356.38 71.2142 356.297 71.0582C358.392 71.9049 360.279 73.4199 362.145 74.7345L362.124 74.6899ZM370.731 84.2482C369.797 83.7357 368.885 83.201 367.973 82.6217C366.21 81.5077 364.53 80.2154 362.954 78.8118C361.378 77.4081 359.947 75.8485 358.62 74.1997C359.014 74.4894 359.408 74.779 359.802 75.0686C361.378 76.2272 362.954 77.4081 364.551 78.5667C366.127 79.7252 367.724 80.8838 369.3 82.0647C370.15 82.6885 371 83.3124 371.83 83.9362C372.141 84.159 372.452 84.4264 372.763 84.6715C372.659 84.872 372.597 85.1171 372.618 85.3399C372.058 84.872 371.332 84.6046 370.731 84.2704V84.2482ZM377.325 80.7501C380.291 74.1106 378.777 65.5773 376.392 59.0046C374.567 53.9693 372.182 49.179 370.544 44.0546C369.715 41.4478 369.072 38.7296 368.802 35.9891C368.698 34.8528 368.719 33.7611 368.781 32.6916C370.731 39.242 374.318 45.1909 377.367 51.2511C381.1 58.6704 384.418 67.382 381.369 75.7371C381.224 76.1159 381.037 76.4723 380.871 76.8511C379.814 78.277 378.59 79.5693 377.325 80.7724V80.7501ZM389.146 75.2469C386.242 77.8092 383.111 79.948 379.897 81.9087C380.021 81.775 380.146 81.619 380.27 81.4854C380.415 81.5299 380.581 81.5299 380.726 81.374C384.314 78.0765 387.819 74.6899 391.323 71.3033C393.044 69.6323 394.828 68.0059 396.57 66.3571C397.482 65.4882 398.498 64.5969 399.452 63.6612C396.445 67.9167 393.024 71.838 389.146 75.2469Z" fill="#B8D5DB"/>
</svg>
